<svg width="132" height="202" viewBox="0 0 132 202" fill="none" xmlns="http://www.w3.org/2000/svg">
<path d="M42.6848 90.3848C43.3913 93.6384 44.8632 96.8094 45.5109 97.9883L19.4579 126.899L20.341 127.783C17.4443 129.481 15.3071 127.518 13.6291 126.192C12.216 125.573 12.3927 126.381 15.0421 128.402C16.5258 129.534 12.3927 128.667 11.8628 127.783C11.3918 127.312 10.5557 126.669 10.9796 127.872C11.5095 129.375 13.6291 128.933 15.3071 129.817C16.6495 130.524 13.4524 129.935 11.6861 129.551C8.68342 129.198 12.0394 131.143 14.6005 131.32C15.9253 131.32 18.663 132.027 12.8342 132.911C8.50308 133.568 11.0091 133.81 12.8342 134.237C15.2187 133.383 19.7228 132.045 18.663 133.53C17.3383 135.387 20.1644 139.719 19.9878 135.829C19.8465 132.717 21.3419 130.347 22.1073 129.551L22.9905 130.524L48.337 102.409C52.7527 109.836 66.2649 117.351 80.4837 126.722L52.9293 145.731L86.1359 178.62C89.4918 183.66 89.1386 189.937 83.8397 191.352C92.3179 191.882 90.1984 190.468 94.9674 174.288C90.587 173.369 91.5231 173.05 65.2052 146.88L87.019 131.408L92.053 135.387L80.4837 149.533L122.257 187.815C125.931 196.939 121.845 200.163 119.342 200.635C126.478 202.615 128.086 196.48 131 183.66C129.446 182.457 126.761 184.19 126.761 182.245L90.9932 148.914C95.7034 143.108 105.424 131.125 106.625 129.64C107.826 128.155 112.895 128.019 115.28 128.137C115.492 127.5 112.012 124.689 110.246 123.363C115.05 121.665 122.139 116.82 125.083 114.61C127.467 112.842 123.493 114.875 121.815 114.079C120.897 113.16 118.665 112.871 117.664 112.842C114.414 113.549 112.542 113.018 112.012 112.665C108.904 111.25 106.772 107.301 106.095 105.503C105.477 103.647 108.215 104.089 104.859 103.647C95.144 101.083 91.3465 102.939 86.8424 102.939C82.25 101.79 88.042 98.4303 86.3125 97.9883C82.1617 96.9273 76.7745 98.5188 73.6834 95.3359C63.2976 89.041 57.1685 86.3179 51.5163 86.3179C52.0462 92.5067 44.6277 92.4183 42.6848 90.3848ZM42.6848 90.3848C38.1807 108.598 16.6318 92.4183 2.7663 91.9762L0.999998 83.8423C12.1277 84.4612 32.7052 107.095 42.6848 90.3848ZM58.4049 47.8585C60.1712 48.2122 62.1495 51.6779 59.4647 54.5778M45.7758 46.4439C43.9212 46.7092 42.1372 50.1042 44.1861 53.0748M70.0625 85.7874C69.4737 84.9917 67.8546 83.1173 66.7948 82.3393L91.788 53.6937L92.5829 54.1358C93.5543 52.1318 95.6562 47.3988 96.2921 44.4988C99.8836 44.0273 106.342 43.4379 103.446 44.8525C100.549 46.2671 102.474 46.0313 103.799 45.7366C104.299 45.9429 105.053 46.55 104.064 47.328C102.827 48.3006 107.42 46.886 104.682 49.4499C102.562 50.9529 107.685 49.4499 105.035 51.7487C103.799 52.8214 107.42 52.0139 105.035 54.1358C103.799 55.236 97.1223 55.126 95.8505 54.8431L95.0557 55.6388L96.2921 56.8766L70.0625 85.7874ZM40.8302 95.5127C33.0584 108.775 25.2867 98.6956 12.3043 102.409L10.9796 96.3969C24.2269 94.4518 30.5856 106.034 40.8302 95.5127ZM47.1005 83.9307C46.1585 83.9897 44.2568 84.6734 44.1861 86.9367C44.1155 89.2001 46.0996 89.5891 47.1005 89.5007C47.9837 89.5302 49.75 89.0586 49.75 86.9367C49.75 84.8148 47.9837 84.0486 47.1005 83.9307ZM47.4538 83.6655C38.6223 76.062 32.2636 86.4947 19.4579 84.638C10.3614 83.0466 10.7147 74.2054 20.0761 72.0835C10.9796 79.068 17.5149 84.1445 26.8764 79.3333C29.1726 77.6535 34.7011 74.3291 38.4457 74.4706C39.211 70.9046 40.9538 63.4721 41.8016 62.2697C34.2948 60.9435 31.6454 49.892 42.5082 48.6542C42.361 47.387 42.4375 44.658 43.9212 43.88C41.4484 43.3495 37.2092 42.2178 40.0353 41.9349H44.981L46.659 1L70.8573 4.27125L61.231 44.2336C64.5281 44.9409 69.8859 46.3732 64.9402 46.4439H62.7323C64.2337 47.1512 64.9402 49.892 63.7038 52.5444C67.8546 54.2242 69.5326 63.7727 60.6128 64.6568C60.6128 64.8631 60.4715 65.3818 59.9062 65.8062L58.7582 77.7419C64.2337 79.5985 66.4416 84.9033 70.0625 87.7325C76.7745 92.9768 82.9565 90.1196 76.7745 81.3668C85.0761 84.9033 83.663 97.3694 70.0625 92.5951C59.7296 88.4397 57.1685 79.5985 47.4538 83.6655ZM57.4334 79.1565C53.8125 80.8363 45.0693 80.7479 39.0639 76.1504C40.4769 71.0225 43.3913 59.7942 45.7758 54.2242C50.3682 55.2851 51.5752 52.0728 51.6046 50.3341C51.7459 48.778 50.9864 46.9744 49.6617 46.4439L50.9864 45.0293C52.8999 45.1767 56.8152 45.5244 57.1685 45.7366C57.5217 45.9488 57.4923 46.886 57.4334 47.328C53.9008 47.1866 52.6055 49.2731 52.3995 50.3341C51.9579 55.1967 55.2255 56.5229 58.7582 55.1967C58.7582 58.521 58.3166 72.4371 57.4334 79.1565ZM48.6902 47.8585C49.1024 47.829 49.9266 48 49.9266 48.9195C49.9266 49.8389 49.1024 49.9509 48.6902 49.892C48.3664 49.8331 47.7187 49.556 47.7187 48.9195C47.7187 48.2829 48.3664 47.9469 48.6902 47.8585ZM55.5788 48.9195C55.9026 48.8605 56.5503 48.9725 56.5503 49.892C56.4914 50.2456 56.1793 50.9529 55.4022 50.9529C54.625 50.9529 54.313 50.2456 54.2541 49.892C54.2835 49.4794 54.5897 48.7073 55.5788 48.9195Z" stroke="white"/>
</svg>
