<svg width="26" height="43" viewBox="0 0 26 43" fill="none" xmlns="http://www.w3.org/2000/svg">
<path d="M10.0945 9.98849C13.8427 9.98849 14.7797 6.90037 14.7797 5.35631C14.7797 3.81224 13.8427 0.724121 10.0945 0.724121C6.34637 0.724121 5.40933 3.81224 5.40933 5.35631C5.40933 6.90037 6.34637 9.98849 10.0945 9.98849ZM10.0945 9.98849L10.141 11.9186M10.485 26.2011C8.14236 33.5354 7.3615 35.4655 0.724121 40.8697M10.485 26.2011C17.9032 31.6053 18.6841 32.3774 17.9032 42.4138M10.485 26.2011L10.141 11.9186M10.141 11.9186L4.62846 17.7088L13.9989 21.5689M10.141 11.9186L19.4649 16.1647L24.931 9.98849" stroke="black"/>
</svg>
