<svg width="40" height="23" viewBox="0 0 40 23" fill="none" xmlns="http://www.w3.org/2000/svg">
<path d="M31.577 14.289C32.2677 14.7575 33.1773 15.0628 34.3627 15.0628C36.6433 15.0628 37.9029 13.9328 38.5477 12.6845M31.577 14.289C30.0415 13.2476 29.5872 11.3997 29.5872 10.3062C29.5872 9.56559 29.7955 8.47912 30.4069 7.53142M31.577 14.289C31.3117 15.0755 30.5423 16.6484 29.5872 16.6484M29.5872 16.6484C28.6321 16.6484 19.6382 16.6484 15.2606 16.6484M29.5872 16.6484C20.0361 9.51338 18.4443 7.53142 30.4069 7.53142M29.5872 16.6484C38.5477 22.5943 39.9341 24.9726 38.5477 12.6845M15.2606 16.6484V6.34225L9.6892 4.02997M15.2606 16.6484L9.6892 4.02997M5.70961 0V2.37834L9.6892 4.02997M9.6892 4.02997L2.9239 16.6484H0.138184M30.4069 7.53142C31.1044 6.45011 32.3267 5.54947 34.3627 5.54947C38.1831 5.54947 39.1382 8.7206 39.1382 10.3062C39.1382 10.9452 38.983 11.8418 38.5477 12.6845" stroke="black"/>
</svg>
