<svg width="25" height="42" viewBox="0 0 25 42" fill="none" xmlns="http://www.w3.org/2000/svg">
<path d="M7.68626 9.92382C9.46352 8.95312 9.97246 6.89228 9.97246 5.71197C9.97246 4.12982 9.05798 0.965515 5.40005 0.965515C1.74212 0.965515 0.827637 4.12982 0.827637 5.71197C0.827637 7.29412 1.74212 10.4584 5.40005 10.4584C6.3291 10.4584 7.08118 10.2543 7.68626 9.92382ZM7.68626 9.92382C8.21954 10.3766 8.71982 10.8182 9.1891 11.2495M20.6414 41.3103C14.7105 33.3946 16.3157 28.7791 16.1618 23.9067M9.1891 11.2495C13.0065 11.1176 21.2511 9.66734 23.6897 4.92089M9.1891 11.2495L1.20867 19.1602V11.2495M9.1891 11.2495C14.9739 16.5657 16.048 20.3064 16.1618 23.9067M16.1618 23.9067L7.30522 28.6531L12.2587 38.146" stroke="black"/>
</svg>
