<svg width="16" height="43" viewBox="0 0 16 43" fill="none" xmlns="http://www.w3.org/2000/svg">
<path d="M8.33916 9.82117C9.78047 8.807 10.207 7.00751 10.207 5.94255C10.207 4.39849 9.31042 1.31036 5.72421 1.31036C2.13801 1.31036 1.24146 4.39849 1.24146 5.94255C1.24146 7.48661 2.13801 10.5747 5.72421 10.5747C6.83696 10.5747 7.69075 10.2774 8.33916 9.82117ZM8.33916 9.82117C8.89632 10.3614 9.60014 11.1081 10.3348 11.9826M14.6897 43V20.6111C14.6897 17.8808 12.3914 14.4306 10.3348 11.9826M10.3348 11.9826C9.6696 16.2741 7.66674 24.9345 4.97709 25.2433M5.72421 26.0153L1.24146 22.1552" stroke="black"/>
</svg>
