<svg width="40" height="42" viewBox="0 0 40 42" fill="none" xmlns="http://www.w3.org/2000/svg">
<path d="M14.3954 10.5196C16.8998 9.78172 17.5791 7.32214 17.5791 5.98784C17.5791 4.40569 16.6239 1.24139 12.8035 1.24139C8.98313 1.24139 8.02803 4.40569 8.02803 5.98784C8.02803 7.56999 8.98313 10.7343 12.8035 10.7343C13.402 10.7343 13.9302 10.6566 14.3954 10.5196ZM14.3954 10.5196C14.5686 10.9831 14.753 11.4506 14.9477 11.9209M39.0688 32.0933H28.7219C26.745 30.5819 24.1144 27.5363 21.5586 23.8384M21.5586 23.8384L12.8035 32.0933V41.5862M21.5586 23.8384C19.0548 20.2156 16.6228 15.9667 14.9477 11.9209M14.9477 11.9209L8.82395 17.854H0.0688477M14.9477 11.9209L20.7627 17.854L14.3954 24.1826" stroke="black"/>
</svg>
