<svg width="12" height="45" viewBox="0 0 12 45" fill="none" xmlns="http://www.w3.org/2000/svg">
<path d="M6.14466 10.1824C9.90179 10.1824 10.8411 7.05265 10.8411 5.48776C10.8411 3.92287 9.90179 0.793091 6.14466 0.793091C2.38752 0.793091 1.44824 3.92287 1.44824 5.48776C1.44824 7.05265 2.38752 10.1824 6.14466 10.1824ZM6.14466 10.1824C6.88379 10.9213 7.53607 11.7098 8.10149 12.5424M6.92739 43.8276H10.8411C7.39703 36.9421 7.05785 34.699 7.31876 34.4382C11.766 26.2311 12.0269 18.3228 8.10149 12.5424M8.10149 12.5424C8.10149 15.668 7.31876 23.484 4.18782 29.7436M8.10149 12.5424C2.62235 23.8752 4.10954 20.7454 3.79645 11.3561" stroke="black"/>
</svg>
