<svg width="21" height="39" viewBox="0 0 21 39" fill="none" xmlns="http://www.w3.org/2000/svg">
<path d="M6.01407 10.7826C9.85971 10.7826 10.8211 7.62521 10.8211 6.0465C10.8211 4.46779 9.85971 1.31036 6.01407 1.31036C2.16844 1.31036 1.20703 4.46779 1.20703 6.0465C1.20703 7.62521 2.16844 10.7826 6.01407 10.7826ZM6.01407 10.7826V13.94M20.0346 37.6207V26.5697H16.4293M6.01407 13.94V21.0442C6.01407 23.4123 7.77666 26.5697 10.0199 26.5697H16.4293M6.01407 13.94L16.4293 26.5697M6.01407 13.94C8.81818 23.807 8.81818 24.2017 14.0258 16.3081M4.41173 28.9378H17.2305V37.6207H4.41173V28.9378Z" stroke="black"/>
</svg>
