<svg width="17" height="40" viewBox="0 0 17 40" fill="none" xmlns="http://www.w3.org/2000/svg">
<path d="M8.36237 10.1372C11.9127 10.1372 12.8003 6.95353 12.8003 5.36169C12.8003 3.76986 11.9127 0.586182 8.36237 0.586182C4.81203 0.586182 3.92444 3.76986 3.92444 5.36169C3.92444 6.95353 4.81203 10.1372 8.36237 10.1372ZM8.36237 10.1372V11.729M8.36237 24.4637C9.84168 25.6576 12.8003 28.7617 12.8003 31.627C12.8003 34.4923 12.8003 38.127 12.8003 39.5862M8.36237 24.4637C7.12961 25.7903 4.6641 29.0801 4.6641 31.627C4.6641 34.1739 4.6641 37.9943 4.6641 39.5862M8.36237 24.4637V11.729M8.36237 11.729C14.2796 14.5148 10.2115 26.8515 15.7589 16.1066M8.36237 11.729C1.70548 14.9127 6.14341 26.4535 0.96582 16.1066" stroke="black"/>
</svg>
